<?xml version="1.0" encoding="utf-8"?>
<!-- Generator: Adobe Illustrator 26.5.2, SVG Export Plug-In . SVG Version: 6.00 Build 0)  -->
<svg version="1.1" id="Layer_1" xmlns="http://www.w3.org/2000/svg" xmlns:xlink="http://www.w3.org/1999/xlink" x="0px" y="0px"
	 viewBox="0 0 1000 1000" style="enable-background:new 0 0 1000 1000;" xml:space="preserve">
<style type="text/css">
	.st0{stroke:#000000;stroke-width:3.4224;stroke-linecap:round;stroke-miterlimit:10;}
	.st1{stroke:#000000;stroke-width:3.3379;stroke-linecap:round;stroke-miterlimit:10;}
	.st2{stroke:#000000;stroke-width:2.961;stroke-linecap:round;stroke-miterlimit:10;}
	.st3{fill:#FFFFFF;stroke:#000000;stroke-width:4.1647;stroke-linecap:round;stroke-miterlimit:10;}
	.st4{stroke:#000000;stroke-width:2.5592;stroke-linecap:round;stroke-miterlimit:10;}
	.st5{fill:#FFFFFF;}
	.st6{fill:#E40000;}
	.st7{fill:#E40000;stroke:#000000;stroke-width:3;stroke-miterlimit:10;}
</style>
<rect width="1000" height="1000"/>
<path class="st7" d="M647.7,137.2l-25.4-3c1,0.5,2.1,1,3.2,1.4C632.6,138.6,640.8,140.5,647.7,137.2z"/>
<path class="st7" d="M551,125.7c6.5,1.3,13.1,2.1,19.8,2.4L551,125.7z"/>
<path class="st7" d="M468.3,135.1c-1.3,0.2-2.6,0.4-3.8,0.8L468.3,135.1z"/>
<path class="st6" d="M350.6,155.2c-14.5,0-32.5,2.3-53.2,6.9c-6.9,1.5-11.6,3.8-14,6.7c4,0.5,8.1,0.7,12.3,0.7
	c18.4,0,39.5-4.8,62.8-14.1C356,155.3,353.4,155.2,350.6,155.2z"/>
<path d="M369.9,154c-5.9-1.2-12.4-1.7-19.2-1.7c-18.2,0-38.5,3.6-53.9,7c-7.4,1.6-15.8,4.8-17.9,12c5.5,0.9,11.2,1.4,16.9,1.4
	C321.1,172.6,347.4,164,369.9,154z M297.1,160.7c20.9-4.6,38.9-6.9,53.5-6.9c5.1,0,9.8,0.3,14,0.9c-25.7,11-48.9,16.5-68.9,16.5
	c0,0,0,0,0,0c-5.1,0-10.1-0.4-14.8-1.1C283,165.7,288.3,162.6,297.1,160.7z"/>
<path class="st7" d="M458.4,845.2c-6.5-1.3-13.1-2.1-19.8-2.4L458.4,845.2z"/>
<path class="st7" d="M361.7,833.7l25.4,3c-1-0.5-2.1-1-3.2-1.4C376.9,832.2,368.6,830.3,361.7,833.7z"/>
<path class="st7" d="M546.5,845c1.3-0.2,2.6-0.4,3.8-0.8L546.5,845z"/>
<path class="st6" d="M683.1,803c5-2.4,7.9-5,9.2-8.1c-16.3,0.5-34.4,8.1-53.9,22.6C650.3,816.3,665.6,811.3,683.1,803z"/>
<path d="M629.4,820.7c1.1,0.1,2.2,0.1,3.3,0.1c16.7,0,37.3-8.3,51.6-15.1c5.4-2.6,11.2-6.7,11.5-13.8c-0.6,0-1.2,0-1.8,0
	C670.5,791.9,647.8,805.7,629.4,820.7z M694.2,793.4c-0.8,4.4-4.2,8-10.5,11c-20.4,9.7-37.3,14.7-50.2,14.9
	c21.9-17.2,42.2-26,60.5-26C694.1,793.4,694.2,793.4,694.2,793.4z"/>
<g>
	<path class="st6" d="M619.9,132.6c-5-2.4-10.1-4.8-15.6-5.8c-5.1-0.8-10.2-0.3-15.3,0.2c-1.2,0.1-2.4,0.2-3.6,0.3
		c-4.7,0.4-9.6,0.5-14.6,0.3l-0.1,0.7l53.9,6.4l-2.1-1C621.6,133.4,620.8,133,619.9,132.6z"/>
	<path class="st6" d="M473.1,134.4l7.4-1.5l-0.1-0.7l-30.3,0.8c-2.7,0.1-5.7,0.2-8.2,1.6c-1.4,0.8-2.6,1.9-3.8,3
		c-2.1,1.9-4.1,3.8-6.6,3.4c0,0,0,0,0,0l-0.1,0.7c0,0,0,0,0,0c7.4,1,14.8,1.5,22.1,1.5c11.4,0,22.8-1.2,34.1-3.5l0.9-0.2l-0.8-0.5
		C483.5,136.2,478.3,134.6,473.1,134.4z"/>
	<path class="st6" d="M350.6,153.4c-14.7,0-32.7,2.3-53.6,6.9c-8.9,2-14.3,5.1-16.4,9.6l-0.2,0.5l0.5,0.1c4.8,0.7,9.8,1.1,14.9,1.1
		h0c20.1,0,43.3-5.6,69.1-16.6l1.3-0.5l-1.4-0.2C360.5,153.7,355.7,153.4,350.6,153.4z M356.9,155.8c-22.7,8.9-43.2,13.5-61.1,13.5
		c-3.9,0-7.8-0.2-11.6-0.7c2.5-2.7,6.9-4.7,13.3-6.1C321.3,157.3,341.3,155,356.9,155.8z"/>
	<path class="st6" d="M215.7,198c-2.1-0.8-4-0.4-5.4,0.9l-7.8,1.6l-25.1,29l0.8,0c1,0.1,2,0.1,3,0.1c11.6,0,23.3-4.2,32.5-11.6
		c5.1-4.2,7.6-8.5,7.4-12.9C220.9,201.7,218.2,199,215.7,198z"/>
	<path class="st6" d="M386.9,837c0.9,0.4,1.8,0.8,2.7,1.3c5,2.4,10.1,4.9,15.6,5.8c1.9,0.3,3.9,0.4,5.9,0.4c3.2,0,6.3-0.3,9.4-0.6
		c1.2-0.1,2.4-0.2,3.6-0.3c4.7-0.4,9.6-0.5,14.6-0.3l0.1-0.7l-53.9-6.4L386.9,837z"/>
	<path class="st6" d="M527,840.4l-0.9,0.2l0.8,0.5c4.3,2.8,9.5,4.4,14.7,4.5l-7.4,1.5l0.1,0.7l30.3-0.8c2.7-0.1,5.7-0.2,8.2-1.6
		c1.4-0.8,2.6-1.9,3.8-3c2.1-1.9,4.1-3.8,6.6-3.4c0,0,0,0,0,0l0.1-0.7c0,0,0,0,0,0C564.5,835.9,545.6,836.6,527,840.4z"/>
	<path class="st6" d="M694,793c-18.3,0-38.7,8.8-60.7,26l-0.9,0.7l1.1,0c13-0.2,29.9-5.2,50.3-15c6.4-3.1,9.9-6.8,10.7-11.3l0.1-0.4
		H694z M639.7,817c18.7-13.7,36.2-21,52-21.7c-1.3,2.8-4.2,5.2-8.8,7.4C666.3,810.6,651.4,815.5,639.7,817z"/>
</g>
<path class="st7" d="M795.3,788.4c-3.8,3.1-7.5,7.5-7.3,12.6s6.7,9.4,10.2,5.8l7.8-1.6c8.2-9.4,16.3-18.9,24.5-28.3
	C818,776.2,805.2,780.3,795.3,788.4z"/>
<path class="st7" d="M541.3,667.4l0.5,0c0.2-0.3,0.4-0.6,0.6-0.9C541.9,666.8,541.6,667.1,541.3,667.4z"/>
<path class="st7" d="M538.5,673c-7.6,9.9-12.6,21.9-14.4,34.5c2.2-2.3,4.4-4.7,6.5-7.1c0.5-4.4,1.2-9.2,3-14.9
	C535.5,679.8,536.9,676.2,538.5,673z"/>
<path class="st6" d="M238.5,784.4c-6.9-7.2-14.3-16.3-20.9-24.3l0,0c-6.4-7.7-11.4-13.9-14.6-16.8c-13-11.8-22.3-38.9-29.8-60.7
	c-2.8-8.3-5.5-16.1-8.2-22.5c-5-12-3.6-25.7-1.5-41c7.5-54.2,16.8-111.4,40.4-161l2.2-4.6l-5,0.5c-5,0.5-9.8,2.1-14.2,4.6l-4.3,2.5
	l-0.2-5c-0.9-25.2,7.6-51.3,25.1-77.5c5.9-8.8,11.3-18.7,16.4-28.3c10.2-18.8,20.7-38.3,36.1-50.7c2.7-2.2,8.3-7,15.2-13.1
	c31.5-27.6,61.8-53.5,70.6-55.4l10.7-2.4l-10.5-3.1c-1.4-0.4-3.2-0.6-5.4-0.6c-17.5,0-50.4,14.3-60.7,19.2l2,3.4l0.8,1.3l-0.6,1.4
	c-0.5,1.2-1.2,2.7-2,4.2l-1.2,2.4l-2.5-1c-0.8-0.3-1.4-0.7-2.1-1.2c-0.2-0.2-0.4-0.3-0.6-0.5c-0.3,0.5-0.5,1-0.7,1.4l-0.8,1.7
	l-1.9,0l-0.3,0c-14.3,0-27.3,13-37.8,23.4c-1.5,1.4-2.8,2.8-4.1,4.1c-3.4,3.2-6.8,8-10.4,14.6l-1.1,2l-2.2-0.6
	c-0.5-0.1-1.1-0.2-1.6-0.2c-3.4,0-7.1,2.6-10,7.1C181,340.9,168,380,155.5,417.8c-1.8,5.4-3.6,11-5.5,16.5c-2.4,7-4.6,13.3-7.6,19
	c-0.2,0.4-0.4,0.8-0.7,1.2l-0.1,0.2c-1.1,1.9-2.3,4.1-3,6.6c-0.9,3-1.1,6.1-1.2,8.9c-0.3,6.7-1.1,14.9-1.9,24.5l0,0.1
	c-2.4,27.8-5.8,65.9-3.6,107.2c1.5,28.3,5.5,54.7,11.9,78.4l4.4,16.1l-9.7-13.6c-1.5-2-2.9-4.1-4.5-6.3
	c-12.5-17.3-21.4-29.9-23.1-33.5c-8.6-17.7-14.6-63.7-15-114.5c-0.4-52.3,5.3-96.7,14.5-113c1.4-2.5,2.9-5,4.5-7.6l0.1-0.1
	c6.7-11.2,13.7-22.8,13.5-36.4l0-2.2l-2.2-0.5c-0.9-0.2-1.9-0.3-2.8-0.3c-6.7,0-13.1,5.4-18.1,15.2l-0.4,0.7L92,410l7.3-27.8
	c6.1-23.1,18.6-46.1,38.4-70.4l0.7-0.9c9.3-11.4,19.8-24.3,22.9-40.2l0.7-3.6l-3.6,0.2c-16.9,1-27,18.8-33.1,32.1
	c-2.9,6.2-5.7,9.4-8.4,9.4c-0.2,0-0.4,0-0.6,0c-0.8-0.1-1.6-0.5-2.9-1.2c-1-0.5-2.1-1.1-3.3-1.5c-1.2-0.4-2.4-0.6-3.6-0.6
	c-6.5,0-12.7,5.7-17.5,16.1c-20.1,43.2-30.6,91.8-30.3,140.5l0.1,8.6l-5.4-6.7c-1.1-1.4-2.6-3.6-3.4-6.7l-0.3-1
	c-0.7-2.7-1.4-5.8-3.6-8.2l-0.7-0.8l-0.1-1.1c-0.1-2.5-1.2-3.1-2.2-3.4l-2.1-0.6l-1.1,1.9c-0.4,0.7-0.5,1.8-0.3,3.1l0,0.2l0,0.2
	c0.3,35,5.7,121.1,12.6,151.6c4.3,18.9,11.6,41.1,19.7,59.6c10.3,23.4,21.3,40.3,32.1,48.9c8.5,6.8,15.2,16.6,22.2,27
	c8.1,11.9,16.5,24.3,27.9,31.5c3.7,2.3,8.1,5.2,12.5,8c10.6,6.8,22.5,14.6,31,19.5c9.3,5.3,30,9.8,45.2,9.8c4.9,0,9-0.4,12.1-1.3
	l14.5-4l-15-1.6C251.4,796.4,245.9,792.2,238.5,784.4z"/>
<path class="st6" d="M255,802.3c-3.1,0.9-7.2,1.3-12.1,1.3c-15.2,0-35.9-4.5-45.2-9.8c-8.5-4.9-20.5-12.6-31-19.5
	c-4.3-2.8-8.8-5.7-12.5-8c-11.5-7.3-19.8-19.6-27.9-31.5c-7-10.4-13.7-20.2-22.2-27c-10.7-8.6-21.8-25.5-32.1-48.9
	c-8.1-18.4-15.4-40.7-19.7-59.6C45.4,568.8,40,482.8,39.6,447.8l0-0.2l0-0.2c-0.2-1.3-0.1-2.4,0.3-3.1l1.1-1.9l2.1,0.6
	c1,0.3,2.1,0.9,2.2,3.4l0.1,1.1l0.7,0.8c2.1,2.4,2.9,5.4,3.6,8.2l0.3,1c0.8,3,2.3,5.3,3.4,6.7l5.4,6.7l-0.1-8.6
	c-0.3-48.7,10.2-97.2,30.3-140.5c4.8-10.4,11.1-16.1,17.5-16.1c1.2,0,2.4,0.2,3.6,0.6c1.2,0.4,2.3,0.9,3.3,1.5
	c1.3,0.7,2.1,1.1,2.9,1.2c0.2,0,0.4,0,0.6,0c2.7,0,5.6-3.2,8.4-9.4c6.1-13.3,16.2-31.1,33.1-32.1l3.6-0.2l-0.7,3.6
	c-3,15.9-13.6,28.8-22.9,40.2l-0.7,0.9c-19.8,24.3-32.4,47.3-38.4,70.4L92,410l12.9-25.7l0.4-0.7c5-9.8,11.4-15.2,18.1-15.2
	c0.9,0,1.9,0.1,2.8,0.3l2.2,0.5l0,2.2c0.2,13.7-6.7,25.2-13.5,36.4l-0.1,0.1c-1.6,2.6-3,5.1-4.5,7.6c-9.2,16.4-14.9,60.7-14.5,113
	c0.4,50.8,6.4,96.9,15,114.5c1.7,3.6,10.7,16.1,23.1,33.5c1.5,2.1,3,4.2,4.5,6.3l9.7,13.6l-4.4-16.1c-6.4-23.7-10.5-50-11.9-78.4
	c-2.2-41.2,1.2-79.3,3.6-107.2l0-0.1c0.8-9.6,1.6-17.8,1.9-24.5c0.1-2.8,0.3-5.9,1.2-8.9c0.7-2.4,2-4.6,3-6.6l0.1-0.2
	c0.2-0.4,0.4-0.8,0.7-1.2c3.1-5.7,5.3-12,7.6-19c1.8-5.5,3.7-11.1,5.5-16.5C168,380,181,340.9,202.8,307.8c3-4.5,6.6-7.1,10-7.1
	c0.5,0,1.1,0.1,1.6,0.2l2.2,0.6l1.1-2c3.6-6.6,7-11.3,10.4-14.6c1.3-1.3,2.7-2.6,4.1-4.1c10.5-10.4,23.6-23.4,37.8-23.4l0.3,0l1.9,0
	l0.8-1.7c0.2-0.5,0.5-0.9,0.7-1.4c0.2,0.2,0.4,0.4,0.6,0.5c0.6,0.5,1.3,0.9,2.1,1.2l2.5,1l1.2-2.4c0.8-1.5,1.6-3,2-4.2l0.6-1.4
	l-0.8-1.3l-2-3.4c10.3-4.9,43.2-19.2,60.7-19.2c2.1,0,3.9,0.2,5.4,0.6l10.5,3.1l-10.7,2.4c-8.8,2-39.1,27.8-70.6,55.4
	c-7,6.1-12.5,10.9-15.2,13.1c-15.5,12.4-26,31.9-36.1,50.7c-5.2,9.6-10.5,19.5-16.4,28.3c-17.6,26.2-26,52.2-25.1,77.5l0.2,5
	l4.3-2.5c4.4-2.6,9.2-4.1,14.2-4.6l5-0.5l-2.2,4.6c-23.6,49.6-32.9,106.7-40.4,161c-2.1,15.3-3.5,28.9,1.5,41
	c2.6,6.4,5.3,14.2,8.2,22.5c7.5,21.8,16.7,48.9,29.8,60.7c3.2,2.9,8.2,9,14.6,16.8l0,0c6.6,8,14,17.1,20.9,24.3
	c7.4,7.8,12.9,12,15.9,12.4l15,1.6L255,802.3z"/>
<path class="st6" d="M462.9,554.1c2.4-7.2,5.1-14.7,9.4-19.3l7-7.4l-1.9,10c-0.5,2.8-1.1,5.7-1.7,8.5l-3.3,16l11.7-11.4
	c4.1-4,5.9-11,4.5-17.9l-0.1-0.5l0.1-0.5c6.4-38.3,6-70.7,5.6-105c-0.2-15.9-0.4-32.4,0.1-50.3c0.6-23.3-16.9-68.9-19-74
	c-7.7-19.6-26.5-34.9-49-39.9c-6.2-1.4-12.6-2.1-19.2-2.1c-12.9,0-26.7,2.6-42,7.8c-29.9,10.2-55.8,28.4-79.1,55.6
	c-18.9,22-35.6,49.2-52.6,85.5c-7.9,16.9-9.8,37-5.1,55.3l3.6,14.1l5.8-13.3c12.5-28.5,25.4-58,45.7-81.4
	c20.2-23.2,45.8-36.5,70.3-36.5c2.1,0,4.3,0.1,6.4,0.3l5.9,0.6l-0.4-5.9c-0.6-8.4-5.7-16-13.7-20.5l-6.3-3.1l6.7-2.4
	c3.5-1.2,7.2-2,11-2.2c0.9-0.1,1.8-0.1,2.7-0.1c10.4,0,20,3.8,26.8,10.7c5.9,5.9,10.1,13.6,14.5,21.7c5.7,10.5,11.5,21.3,21.5,28.4
	l4.9,3.5l2.7-5.8l3-6.5l2.5,6.7c8.3,22.2-0.6,51.4-7.9,71.4c-17.6,47.6-37.3,95-58.6,140.8l-4.3,9.2l31.1-6.9l7.6-1.7l-4.6,6.4
	c-2.4,3.4-6,7-9.8,10.6c-3.2,3.1-6.6,6.3-9.4,9.8c-7.6,9.4-11.4,21.9-10.4,34.3l0.2,2.7l-2.6,0.5c-4.2,0.8-8.6,1.2-13.1,1.2
	c-17.6,0-34.9-6.2-48.7-17.4l-4.3-3.5l-3,4.7c-7.5,11.8-2.6,27.6,5.8,36.5l14.6,15.5L306.1,676c-7.6-4.5-14.2-11.2-18.5-18.7
	c-9.6-16.8-12.2-38.7-8.1-67.1c1.3-9,3.1-18.1,4.9-27c2.9-14.4,5.9-29.4,6.8-44.5l0.3-5l-5-0.2c-0.4,0-0.8,0-1.1,0
	c-0.7,0-1.3,0-2,0.1l-4.5,0.4l1.3-4.3c8.7-27.6,21.1-53.7,36.8-77.6c4.1-6.2,9-13,15.6-15.3c1.5-0.5,3.1-0.8,4.7-0.8
	c2.9,0,6,0.9,8.9,2.6c7,4,12.8,12.4,14.4,20.7c2.5,13.5-1.8,28.1-6.9,41.9l-2.9,8l-2.7-8.1c-1-3-2.4-5.5-4.3-7.4c-2.4-2.6-5.6-4-9-4
	c-0.9,0-1.8,0.1-2.7,0.3c-6.6,1.4-11,7.5-13,18c-4.6,24-4.9,49.5-0.7,73.7c0.7,4.1,1.6,8.4,4.8,11.9c2.8,3.1,6.5,4.7,10.9,4.7
	c5.3,0,11.3-2.4,16.8-6.9c18.7-14.9,31.4-37.4,34.9-61.8l0.1-0.6c0.8-5.3,1.3-7.1,2.6-8.2c3.2-2.8,3.9-5.6,4.4-7.9
	c0.3-1.2,0.5-2.1,1.1-3.1c2.5-4.4,7.7-18.9,8.1-29.7c0.2-6.8,1.1-13.5,1.9-20c2.6-20.3,5-39.4-12.1-55
	c-13.1-11.9-30.9-15.6-47.9-18.3c-3.1-0.5-6.9-1.1-10.9-1.1c-5.3,0-9.7,1.1-13.4,3.2c-5,2.9-8.4,7.6-11.5,12.2
	c-19.4,29-35.4,60.6-47.4,93.7l-2.3,6.3l-3.2-6c-0.1-0.3-0.3-0.6-0.4-0.8l-4.8-8.7l-4.1,9c-15.1,33-24.3,70.5-26.8,108.3
	c-2.5,37.7,1.8,76.3,12.3,111.7l1.6,5.4l-5.4-1.7c-4.3-1.4-8.8-2-13.7-2h-0.2l-10.4,0l6.5,8.1c19.3,23.9,40.5,47.5,69.2,50.3
	c1.8,0.2,3.6,0.3,5.4,0.3c22.3,0,43.4-13.1,58.7-22.7c18.3-11.4,37.3-23.2,52.9-39.6c22.9-24,36.2-55.6,46.9-83.4
	C450.1,591.3,456.8,572.7,462.9,554.1z"/>
<path class="st6" d="M343.3,732.4c-15.4,9.6-36.4,22.7-58.7,22.7c-1.8,0-3.6-0.1-5.4-0.3c-28.7-2.8-49.9-26.4-69.2-50.3l-6.5-8.1
	l10.4,0h0.2c4.9,0,9.4,0.7,13.7,2l5.4,1.7l-1.6-5.4c-10.5-35.4-14.7-74-12.3-111.7c2.5-37.9,11.7-75.3,26.8-108.3l4.1-9l4.8,8.7
	c0.2,0.3,0.3,0.5,0.4,0.8l3.2,6l2.3-6.3c12-33.1,28-64.7,47.4-93.7c3.1-4.6,6.5-9.3,11.5-12.2c3.8-2.2,8.1-3.2,13.4-3.2
	c4,0,7.8,0.6,10.9,1.1c17,2.7,34.8,6.4,47.9,18.3c17.1,15.5,14.7,34.7,12.1,55c-0.8,6.5-1.7,13.2-1.9,20
	c-0.4,10.8-5.6,25.3-8.1,29.7c-0.6,1-0.8,1.9-1.1,3.1c-0.6,2.3-1.2,5.2-4.4,7.9c-1.3,1.1-1.8,2.9-2.6,8.2l-0.1,0.6
	c-3.6,24.4-16.3,46.9-34.9,61.8c-5.5,4.4-11.5,6.9-16.8,6.9c-4.4,0-8.1-1.6-10.9-4.7c-3.1-3.5-4.1-7.8-4.8-11.9
	c-4.1-24.2-3.9-49.7,0.7-73.7c2-10.5,6.4-16.5,13-18c0.9-0.2,1.8-0.3,2.7-0.3c3.3,0,6.5,1.4,9,4c1.8,1.9,3.3,4.4,4.3,7.4l2.7,8.1
	l2.9-8c5.1-13.8,9.4-28.3,6.9-41.9c-1.6-8.4-7.3-16.7-14.4-20.7c-2.9-1.7-6-2.6-8.9-2.6c-1.6,0-3.2,0.3-4.7,0.8
	c-6.6,2.3-11.5,9.1-15.6,15.3c-15.8,23.9-28.2,50-36.8,77.6l-1.3,4.3l4.5-0.4c0.7-0.1,1.3-0.1,2-0.1c0.4,0,0.8,0,1.1,0l5,0.2l-0.3,5
	c-0.9,15.2-3.9,30.1-6.8,44.5c-1.8,8.8-3.6,18-4.9,27c-4.1,28.4-1.5,50.3,8.1,67.1c4.3,7.5,10.8,14.2,18.5,18.7l18.3,10.9
	l-14.6-15.5c-8.4-8.9-13.3-24.8-5.8-36.5l3-4.7l4.3,3.5c13.8,11.2,31.1,17.4,48.7,17.4c4.4,0,8.8-0.4,13.1-1.2l2.6-0.5l-0.2-2.7
	c-1-12.4,2.8-24.9,10.4-34.3c2.8-3.5,6.1-6.7,9.4-9.8c3.8-3.7,7.4-7.2,9.8-10.6l4.6-6.4l-7.6,1.7l-31.1,6.9l4.3-9.2
	c21.3-45.8,41-93.2,58.6-140.8c7.4-20,16.2-49.2,7.9-71.4l-2.5-6.7l-3,6.5l-2.7,5.8l-4.9-3.5c-10-7.1-15.9-18-21.5-28.4
	c-4.4-8.1-8.6-15.8-14.5-21.7c-6.9-6.9-16.4-10.7-26.8-10.7c-0.9,0-1.8,0-2.7,0.1c-3.8,0.2-7.5,1-11,2.2l-6.7,2.4l6.3,3.1
	c7.9,4.4,13,12.1,13.7,20.5l0.4,5.9l-5.9-0.6c-2.1-0.2-4.2-0.3-6.4-0.3c-24.5,0-50.1,13.3-70.3,36.5c-20.3,23.4-33.2,52.8-45.7,81.4
	l-5.8,13.3l-3.6-14.1c-4.6-18.3-2.8-38.4,5.1-55.3c17-36.3,33.7-63.5,52.6-85.5c23.3-27.2,49.2-45.3,79.1-55.6
	c15.3-5.2,29.1-7.8,42-7.8c6.6,0,13.1,0.7,19.2,2.1c22.6,5,41.4,20.3,49,39.9c2,5.1,19.6,50.7,19,74c-0.5,17.9-0.3,34.3-0.1,50.3
	c0.4,34.3,0.7,66.7-5.6,105l-0.1,0.5l0.1,0.5c1.4,6.9-0.4,13.9-4.5,17.9l-11.7,11.4l3.3-16c0.6-2.8,1.2-5.7,1.7-8.5l1.9-10l-7,7.4
	c-4.3,4.6-7,12-9.4,19.3c-6.1,18.6-12.8,37.2-19.8,55.4c-10.7,27.7-24.1,59.3-46.9,83.4C380.6,709.2,361.7,721,343.3,732.4z"/>
<path d="M352.3,320.5C352.3,320.6,352.3,320.6,352.3,320.5l0.1,0.1L352.3,320.5z"/>
<path class="st6" d="M500.7,179.8l1.7,3.8c0.1,0.2,0.2,0.4,0.3,0.6l2.3,4.9l-5.4-0.6c-3.7-0.4-7.5-0.6-11.2-0.6
	c-16.8,0-33.3,4.2-47.8,12.3l-13.1,7.3l14.9-1.6c1.2-0.1,2.5-0.2,3.7-0.2c2.6,0,5.2,0.3,7.7,0.9l13.3,2.9l-13.3,2.9
	c-8.1,1.8-16,4-23.6,6.2c-9.5,2.7-19.2,5.4-29.3,7.4l-5.9,1.1l4.4,4c6.7,6.2,16.6,6.4,23.1,6.5c2,0,4.1,0.1,6.2,0.1
	c25.2,0,48.3-3.2,72.7-6.7l0.1,0c9.5-1.3,19.3-2.7,29.3-3.9c11.4-1.3,22.4-2.1,29.5-2.1c2.4,0,4.5,0.1,6.1,0.3c6,0.7,9.8,2.4,13.3,4
	c3.4,1.5,6.5,3,10.7,3c1.4,0,2.9-0.2,4.5-0.5l2.9-0.7l0.7,2.9c0.7,3,1.3,6,2,8.9l0,0.1c1.8,8,3.6,16.3,5.8,24.4
	c0.2,0.7,0.4,1.7,0.6,2.9c0.7,4.1,1.6,9.3,5.1,11.6c1.1,0.7,2.3,1,3.6,1c1.4,0,2.7-0.4,3.8-0.6l0.5-0.1l2.1-0.5l1.2,1.8
	c1.1,1.7,1.3,3.8,1.5,7c0.1,1.1,0.1,2.4,0.3,3.7c0.3,3,0.3,6.4,0.3,10c-0.1,6.3-0.1,12.8,1.7,18.4c2,6,5.8,9.3,9.5,12.5
	c2.2,1.9,4.5,3.9,6.2,6.4c6.5,9.5,5.2,22.8,4.1,34.5l-0.1,1.6c-1,10.9-1.5,22.2-2,33.1c-0.8,18.1-1.7,36.8-4.9,54.4l-2.3,12.4
	l7.6-10.1c0.3-0.4,0.6-0.7,0.9-1l6.5-6.6l-1.4,9.2c-3.2,20.8-6.2,38.5-9.3,55.5c-1.6,8.5-4.6,15.8-7.8,23.6c-3.1,7.5-6.3,15.2-8,24
	c-2.3,12-2,25.8-1.7,39c0.5,21.2,1,43.2-9,59.6c-1,1.7-1.8,4.1-2.6,6.6c-0.8,2.4-1.6,4.8-2.4,6.3l-0.8,1.4l-1.6,0.1l-3.8,0.3
	l2.8,4.3c2.2,3.3,1.8,4.5,0,8.3c-0.7,1.5-1.5,3.4-2.3,5.7c-0.6,2-1.3,4-2,6c-2,5.7-4.2,11.7-4.4,18.1l-0.2,6.9l5.2-4.5
	c27.3-23.8,33.5-42,44.8-75l1.4-4c0.7-2.1,1.2-4.1,1.6-6.2l0.6-3.7l3.5,1.4c0.4,0.2,0.8,0.2,1.2,0.2c1,0,1.8-0.4,2.5-1.2l3.4-3.9
	l-0.9-0.2l-2.6-0.5l0.2-2.6c0.9-13.1,7-51.3,7.8-56l0,0l0,0c5.8-28.5,6.2-34.2,6.6-39.7c0.3-4.5,0.7-9.1,4.2-27.5l0.8-3.9l3.5,1.8
	c1.9,0.9,3.5,1.5,4.4,1.7l2.2,0.5l1-2c17.7-34.4,4.7-92.3-1.7-115.6c-1-3.8-2.1-7.8-0.7-10.7c0.5-1.1,1.5-2.2,2.5-3.3
	c1.1-1.2,2.1-2.4,3-4c3.2-5.7,2-13.3-3.2-20.4c-1.4-1.8-2.8-3.6-4.3-5.2c-2.5-2.9-5-5.7-6.4-8.9c-2.5-5.3-2.5-11.9-2.6-18.8
	c-0.1-10.3-0.2-20.9-9.1-26.9c-1-0.7-2.1-1.2-3-1.7c-1.6-0.8-2.9-1.6-3.8-2.6c-1.5-1.8-1.8-4.6-2-7.6l-0.1-1
	c-1.6-17.1-10.5-28.2-19-38.9c-0.5-0.7-1.1-1.4-1.7-2.1l-2.4-3l3.5-1.6c5.2-2.4,11.1-3.6,17.6-3.6c4.3,0,9,0.5,14,1.6
	c7.2,1.5,32.7,3.2,61.2,3.2c3.4,0,6.7,0,9.9-0.1c17.4-0.3,31.7-1.2,42.6-2.8c14.5-2.1,21.9-5.1,24.1-9.7l1.8-3.8l-4.1-0.5
	c-2.6-0.3-5.5-0.7-8.6-1c-29.7-3.5-79.5-9.3-102.2-22.5c-6.1-3.6-32.6-5.7-58.1-7.8c-15.9-1.3-26.6-2.2-29.9-3.1l-4-1l0.2,4.1
	c0.1,2.2,0.6,4.4,1.4,6.5l1.6,4.3l-4.6-0.3c-13.5-0.8-27.3-5.4-41.9-10.2c-15.8-5.2-32.1-10.7-48-10.7c-2.1,0-4.1,0.1-6.1,0.3
	L500.7,179.8z"/>
<path class="st6" d="M769.5,656.1c1.4-2,6.1-6.7,12.6-13.2l0.1-0.1c13-13,21.7-21.9,23.4-26.7c2.8-7.6,6.4-22.2,7.8-28.2
	c1.2-5,2.3-9.7,3-13.4c1.4-6.5,1.4-7.4,0.2-8.7l-1.3-1.5l-1.9,0.4c-2,0.4-2.4,1.6-3.9,6.5l-0.1,0.3c-3.5,15.2-18,28.1-32,40.5
	c-5.5,4.9-11.2,9.9-16.2,15.1l-1,1.1l-1.5-0.2l-10.3-1.2l-0.1,0c-3.3,2.3-8.7,5.6-17.1,10.3c-2.9,1.6-5.2,2.9-6.3,3.7
	c-2.9,2-5.9,4.1-8.7,6.1l-0.2,0.1c-1.9,1.4-3.9,2.8-5.9,4.2l-9.2,6.4l4.8-10.1c0.5-1,1-2.1,1.6-3.1l21.3-40.2
	c2.9-5.4,4.3-11.2,5.6-16.8c1.2-4.8,2.3-9.3,4.2-13.3c2.3-4.7,7.4-6.7,12.9-8.9c1.8-0.7,3.7-1.5,5.5-2.3c0.7-0.3,1.5-0.7,2.4-1.1
	l0.3-0.2c17.5-8.2,34.2-16.8,37.3-24.7c1.1-2.8,1.9-4,2.4-4.8c1.6-2.6,1.4-3.6,0.6-7.8c-0.1-0.7-0.3-1.5-0.5-2.5l-0.6-3.2l-3.2,0.5
	c-1.1,0.2-2.4,0.4-3.7,0.6c-9,1.4-21.4,3.2-27.2,10.4l-0.3,0.4l-0.4,0.3c-3.3,2.2-13,3.6-17.7,4.1l-4.8,0.5l1.7-4.5
	c4.1-11.2,9.8-26.6,17.4-36.8c4.8-6.4,5.3-17,5.8-27.2c0.4-8.9,0.8-17.3,3.8-22.1c4.9-8,1.6-17.9-1.5-27.4c-0.9-2.8-1.9-5.6-2.5-8.3
	l-1.7-6.7l6,3.3c2.5,1.4,5.2,2.9,7.3,4.2c9.9,5.8,16.7,9.6,21.4,9.8l1.3,0l0.9,1c1,1.1,2.1,3,3.4,5c2.6,4.3,5.6,9.2,10.1,9.2
	c0.2,0,0.4,0,0.6,0l0.2,0l0.2,0c3.8,0.2,12,4.9,29.3,16.7c3.5,2.4,6.5,4.4,8.8,5.9c1.6,1,3.9,2.4,5.8,2.4c0.9,0,1.6-0.3,2.3-0.9
	c0.5-0.5,2-2.2,0.4-5.1c-1.4-2.5-3.8-8.8-6.7-16.6c-1.6-4.3-3.1-8.4-4.4-11.6c-1.6-3.9-3.1-7-5.5-7.1l-1.1,0l-0.8-0.8
	c-0.9-0.8-1.8-1.8-2.7-2.6c-9.4-9-13-12.1-15.7-12.3c-8-0.7-19.5-10.5-28.7-18.4c-4.6-3.9-8.9-7.6-12.4-9.9c-2.4-1.6-8.1-3-18.9-5.6
	c-12.6-3.1-24.2-6.1-27.5-8.5c-4.8-3.6-11.9-8.3-18.9-8.3c-1.1,0-2.3,0.1-3.3,0.4l-3,0.7l0.5,3.1c1.6,9.5,7.5,32.1,12.3,40.6
	c4.6,8.2,5.9,16.1,7.5,25.3l0,0.2c0.3,2,0.7,4.2,1.1,6.3c1.1,6.2,0.3,10.4-0.8,15.4c-0.8,4-1.8,8.5-1.6,14.3
	c0.1,4.5,0.8,9.3,1.5,14.4c1.5,11.5,3.3,24.5-1.8,32.4c-1.7,2.6-4.1,5-6.6,7.5c-2.8,2.8-5.8,5.7-7.7,9.1c-2.6,4.5-2.7,9.2-2.7,13.7
	c0,2.2-0.1,4.3-0.4,6.4c-1.4,8.6-2,16.5-2.6,25l-0.1,1.3c-1.4,19.3-7,38.3-16,55.2c-4.7,8.7-8.6,17.7-12.5,26.5
	c-4.9,11.1-9.9,22.5-16.3,33.1c-12.7,20.9-21.9,36.1-17,47.1l0.7,1.6l1.7,0.3c0.3,0,2.8,0.5,6.9,0.5c13.8,0,40-4.5,61-34.3
	c4.2-5.9,14.3-13.2,24.1-20.2C754.6,670.3,764.7,663,769.5,656.1z"/>
<path class="st6" d="M959.2,359.8c-1-1-2.4-1.5-3.7-1.5c-0.1,0-0.2,0-0.4,0l-2.9,0.2l-0.3-2.9c-1.1-10.3-3.5-21-5.9-26.6
	c-1.6-3.6-2.8-7.9-4.2-12.4c-2.7-9-5.4-18.3-11.2-24.2c-3.7-3.8-5.7-8.6-7.8-13.8c-3.5-8.5-7.4-18.1-20.3-18.1
	c-3.6,0-7.9,0.8-12.6,2.3l-4.7,1.5l3,3.9c16,20.9,33.1,72.1,36.1,88.1c1.7,9.4-1.7,31.1-4.9,49l-1.7,9.3l-4-8.6
	c-2.6-5.7-5.8-11.2-8.9-16.6c-3.3-5.8-6.8-11.8-9.5-18c-2.9-6.4-5-13.2-7.2-20.4c-1.8-5.9-3.7-12-6-17.8
	c-4.5-11.3-12.8-25.5-26.4-29.3l-4.2-1.2l-0.3,6.8l-0.4,8.9l-5.1-7.3c-10.7-15.4-20-26.5-29.2-34.9c-11.2-10.3-22.6-16.7-34.7-19.7
	l-6-1.5l2.8,8.9l1.8,5.7l-5.7-2l-41.7-14.5c-2-0.7-4.8-1.7-7.7-1.7l-1.1,0l-0.8-0.8c-0.9-0.9-2-1.3-3.1-1.3h0
	c-0.9,0-1.7,0.3-2.4,0.7c-2.1,1.4-2.7,4.7-1.4,7l0,0.1l0.1,0.2l0.4,0.9l-0.2,1l-2.2,11.7l3.8,0.3c16.8,1.3,30.8,12.8,45.7,25
	c5.5,4.5,11.1,9.1,16.8,13.1l8.1,5.7l-10-0.3l-14.6-0.4l4.8,5.9c14.6,17.7,34.7,25.6,54.3,33.3c20.6,8.1,40,15.8,53.3,34
	c15.4,21.1,18.9,52.7,21.7,78.1c3.7,33.5,3.1,49.3-7.7,83.1c-3.6,11.4-11.7,24.7-19.5,37.7c-7,11.6-14.3,23.6-18.2,34.1
	c-7.5,20-26.3,40.8-41.4,57.6l-0.2,0.2c-2.2,2.5-4.3,4.8-6.3,7c-1.5,1.7-2.8,3.2-4,4.5c-7.4,8.4-7.7,8.8-14,12.4
	c-2.3,1.3-5.4,3.1-9.7,5.8c-24.5,15.1-40.1,29.6-47,59.2l-1.7,7.4l6.7-3.5c15.5-8.1,25-16.2,36.1-25.7l0.2-0.2
	c1-0.8,1.9-1.7,2.9-2.5l4.4-3.7l0.6,5.7l0.5,4.7l5.1-4.8c8.6-8.1,10.7-11.3,12.7-14.5c1.9-2.9,3.7-5.7,11.7-13.2
	c9-8.5,30.1-36.9,38.1-48.9l1.5-2.2l2.4,1.2c0.3,0.1,0.7,0.3,1,0.3c0.3,0.1,0.6,0.1,0.9,0.1c3.1,0,5.6-4.4,7.8-8.3
	c3-5.3,11.8-18.2,19.6-29.6c7-10.3,13.7-20,16.5-24.7c7.2-12,11.8-22.8,14.9-35l2.9-11.6l2.9,11.6c0.7,3,1.7,7,2.3,10.9
	c2.6,16.3-1.4,26-6.9,39.3c-2.1,5.1-4.5,10.9-6.8,17.6c-3.2,9.6-6.6,16-10.6,23.5c-4.2,7.9-8.9,16.9-13.7,30.7
	c-4.6,13.2-15.2,30.1-24.6,34.3c-9.5,4.3-26.3,27-26.6,34.2c-0.1,2,0.7,3.6,2.3,4.4c0.7,0.4,1.4,0.6,2.2,0.6c2.5,0,5-1.7,6.4-2.7
	l0.8-0.5c8.5-5.8,22.7-15.5,32.9-15.6l1.7,0l0.9,1.5c0.2,0.4,0.5,0.8,0.9,1.1c0.9,0.8,2,1.3,3.3,1.4l3.1,0.2l-0.3,3.1l0,0.4l4.6-1
	c4.5-1,7.5-3.3,8.8-7.1c1-3,0.8-6.3,0.7-9.8c-0.3-5.4-0.6-10.9,3.5-15.2c16.8-17.4,27.2-31.4,31-41.7c8.3-22.7,12.5-38.8,15.6-50.5
	l0.4-1.5c6-22.8,4.4-28.6-1-47.9l0-0.2c-0.4-1.5-0.9-3.1-1.3-4.8c-1.8-6.5-3.2-12.1-4.6-17.5l0-0.1c-3.6-14.2-6.4-25.5-12.9-41.6
	c-5.5-13.8-5.7-30.6-0.7-50.1c4-15.5,10.4-29.1,15.1-37.8c2.8-5.3,6.6-18.4,10.5-36.8c1.4-6.5,2.7-13.4,3.7-19
	C960.8,361.7,960.7,361.2,959.2,359.8z"/>
<path class="st6" d="M524.7,725.6c-7.4,7.3-16.3,12.9-25.8,18.7c-6.7,4.2-13.7,8.5-20,13.5c-5.5,4.4-5.9,8.5-5.2,11.1
	c1,3.7,4.3,5.6,5.5,6.3c5.5,3.1,11.9,4.8,18.3,4.8c7.6,0,14.9-2.2,21.1-6.3l1.6-1l1.6,1c1,0.6,2.2,1.1,3.4,1.4
	c1.1,0.3,2.3,0.4,3.6,0.4c3.1,0,6.1-0.9,8.6-2.6c5.7-3.8,8.7-10.5,10.9-15.4c28.2-62.5,51.7-120.8,52.7-201.1
	c0.3-26.3-4.8-50.9-14.5-69.3l-1-2l1.6-1.6c16.9-16.8,29.8-43.8,36.3-75.8l1.4-6.8l-2.6,1.1l-4.9,2l0.7-5.2c1-7.2,2.2-14.3,5.6-21.8
	c1.3-3,2.8-6.3,3.3-10.2c0.5-4.3-1.4-14.1-13-36.8c-5.3-10.3-14.6-26.8-18.8-30c-2.6-2.1-6.3-3.6-10.1-5.3
	c-5.5-2.4-9.9-4.4-11.9-6.9c-1.6-2-3-3.8-4.2-5.5c-5.1-6.7-8.2-10.8-12.7-12.2c-1.1-0.3-2.1-0.5-3.2-0.5c-4.4,0-8.8,2.7-12.6,5.3
	l-1.1,0.8l-1.3-0.3c-3.5-0.9-8.8-2.7-14.4-6.3c-1.7-1.1-12.8-5.7-20.8-5.7c-1.6,0-2.9,0.2-3.9,0.5c-1.9,0.7-3.3,2-3.9,3.7l-0.1,0.2
	c-1.1,3.9,2.3,9.2,9.8,19c1,1.3,1.6,2.1,2,2.6c1.7,2.5,3.5,4.9,5.3,7.2c4.9,6.3,9.5,12.2,10.9,19.5c0.6,2.8,0.6,5.7,0.7,8.8
	c0,0.9,0,1.9,0.1,2.8c0.3,8.1,1.6,16.2,2.9,24c1.8,11.1,3.6,21.6,2.6,32.3c-0.3,3-1.1,5.9-2.1,9c-1.1,3.5-2.2,7.4-2.4,11.6
	c-0.2,6.9,1.1,14.1,2.4,21l0,0.1c0.3,1.4,0.5,2.7,0.7,4l0.3,1.8l-1.5,1.1c-0.8,0.6-1.5,1.2-2.1,2c-6.5,7.8-4.6,25.3-3.9,30.4
	c3.5,25,3.6,50.3,0.3,75.5c-3.3,25.1-9.9,48.6-19.5,70l-1.2,2.7l-2.7-1.1c-1-0.4-2.1-0.6-3.2-0.6c-0.6,0-1.2,0.1-1.8,0.2
	c-4.6,1.1-7.5,5.4-9.7,9.4c-6.7,12-11.8,25.9-16.8,39.3c-9.3,25.1-18.1,48.9-35.7,60.2c-2.8,1.8-5.9,3.3-9.1,4.9
	c-8.9,4.4-18.1,8.9-22.8,20.2l-3.3,7.8l-0.4,1l-1,0.5c-15,7.7-27.1,22.7-33.4,41.1l-1.7,5.1l5.4-0.2c23.4-1,46.4-10.4,66.6-27.3
	c16.9-14.1,31.1-33.1,41-54.8l1.2-2.6l2.6,1.1c0.9,0.3,1.8,0.5,2.7,0.5l0.2,0c5.5,0,9.2-4.8,11.1-7.1c19.3-24.7,26.7-60.2,33.9-94.5
	c7.8-37.2,15.2-72.4,36.1-95c1.5-1.7,5.5-5.5,8.9-5.5c0.9,0,1.7,0.3,2.4,0.7c3.4,2.4,4.9,9.7,4,18.9c-1.4,13.9-1.6,14.9-3.4,21.1
	c-0.7,2.7-1.8,6.3-3.3,12.4c-2.3,9.1-4.1,21.8-4.9,30.3c-0.2,2.5-0.4,5.1-0.6,7.6c-0.7,10.1-1.4,20.5-6.2,29.6
	c-1.5,2.8-2.6,7.5-3.9,13c-1.7,7.2-2.8,11.2-3.9,12.9c-0.8,1.3-1.5,2.4-2.2,3.4c2.2,0.2,4.3,1.3,5.4,3.2c-5,9.8-11,18.9-17.8,27.4
	c-0.5,2.9-0.7,5.6-1,8.2C532.5,712.4,531.9,718.4,524.7,725.6z M558.7,477.2l-4.6,5.6l-0.7-7.2c-1.6-15.9,1.6-31.3,4.7-46.1
	c2.9-14,5.9-28.5,4.9-43.5c-0.1-1-0.3-3.6-1-4.8c0,0,0,0,0-0.1c-0.2,0.2-0.6,0.6-0.9,1.2c-0.3,0.7-0.6,1.6-0.8,2.7
	c-0.2,2.7-1.3,3.4-2.6,5.2c-0.6,0.9-3.9,1.8-3.9,1.8c0.1-2.7,0.2-5.3,0.6-7.7c1.4-21.3,0.2-43.7-3.4-64.7l-0.7-3.8l3.9,0.3l31.3,2.8
	c2.6,0.2,8.5,0.8,11.3,7.3c1.4,3.4,1.5,7.3,1.6,10.5l0.3,16l0.3,16c0.2,8.5,0.4,18.1-1.8,26.6c-1.2,4.9-3.2,9.1-5,13.2
	c-2.8,6.2-5.6,13-8.6,20.2C576.1,446.7,568.4,465.5,558.7,477.2z"/>
<path class="st6" d="M546.6,665.4c-0.1,0.2-0.3,0.4-0.4,0.6c-4.5,7.1-6.4,10-9.7,20.4c-1.1,3.5-1.8,6.7-2.3,9.7
	c6.8-8.5,12.8-17.7,17.8-27.4C550.9,666.6,548.8,665.5,546.6,665.4z"/>
<path d="M541.8,667.4c-1.2,2-2.3,3.7-3.3,5.6c1.5-2,3.2-3.9,4.9-5.8L541.8,667.4z"/>
<path d="M535.1,685.9c3.3-10.4,5.4-13.7,9.7-20.4c-0.9,0.2-1.7,0.5-2.4,1c-0.2,0.3-0.4,0.6-0.6,0.9l1.7-0.1
	c-1.8,1.8-3.4,3.7-4.9,5.8c-1.6,3.2-3,6.7-4.9,12.4c-1.8,5.7-2.5,10.5-3,14.9c0.6-0.7,1.2-1.3,1.8-2
	C532.9,694.6,533.6,690.5,535.1,685.9z"/>
<path d="M532.4,698.3c0.6-0.8,1.2-1.5,1.8-2.3c0.5-3,1.2-6.2,2.3-9.7c3.3-10.4,5.2-13.3,9.7-20.4c0.1-0.2,0.3-0.4,0.4-0.6
	c-0.6,0-1.2,0-1.9,0.1c-4.3,6.7-6.4,10-9.7,20.4C533.6,690.5,532.9,694.6,532.4,698.3z"/>
<path d="M556.7,390.1c0,0.6,0,1.3-0.1,1.9v0C556.7,391.4,556.7,390.8,556.7,390.1z"/>
<path d="M556.7,392C556.7,392,556.7,392,556.7,392c0.1-1.2,0.2-2.5,0.3-3.7C556.9,389.5,556.8,390.8,556.7,392
	C556.7,392,556.7,392,556.7,392z"/>
<path class="st7" d="M822,557.1c2,0.2,3.9-1.6,5.5-3.4c7.4-8.4,13.2-19.1,16.7-30.8c-1.4-2-3.4,1.6-5.6,2.5
	c-11.7,4.8-13.4,18-19.1,27.8C819.4,555,820.5,557,822,557.1z"/>
<path class="st7" d="M819.7,552.5l0.5-0.9C819.9,551.9,819.8,552.2,819.7,552.5z"/>
<path class="st7" d="M818.2,555.3c0.5-0.7,0.9-1.4,1.3-2.1c0-0.2,0.1-0.5,0.1-0.7L818.2,555.3z"/>
</svg>
